<svg xmlns="http://www.w3.org/2000/svg" xmlns:xlink="http://www.w3.org/1999/xlink" width="72" height="72" viewBox="0 0 72 72">
    <defs>
        <circle id="b" cx="28" cy="28" r="28"/>
        <filter id="a" width="150%" height="150%" x="-25%" y="-17.9%" filterUnits="objectBoundingBox">
            <feOffset dy="4" in="SourceAlpha" result="shadowOffsetOuter1"/>
            <feGaussianBlur in="shadowOffsetOuter1" result="shadowBlurOuter1" stdDeviation="4"/>
            <feColorMatrix in="shadowBlurOuter1" values="0 0 0 0 0.301960784 0 0 0 0 0.631372549 0 0 0 0 1 0 0 0 0.4 0"/>
        </filter>
        <path id="c" d="M19 29v-3h-2a1 1 0 0 1 0-2h2v-2a3 3 0 0 1 3-3h2v-2a1 1 0 0 1 2 0v2h4v-2a1 1 0 0 1 2 0v2h2a3 3 0 0 1 3 3v2h2a1 1 0 0 1 0 2h-2v3h2a1 1 0 0 1 0 2h-2v3a3 3 0 0 1-3 3h-2v2a1 1 0 0 1-2 0v-2h-4v2a1 1 0 0 1-2 0v-2h-2a3 3 0 0 1-3-3v-3h-2a1 1 0 0 1 0-2h2zm3-8a1 1 0 0 0-1 1v12a1 1 0 0 0 1 1h12a1 1 0 0 0 1-1V22a1 1 0 0 0-1-1H22zm3 3h6a1 1 0 0 1 1 1v6a1 1 0 0 1-1 1h-6a1 1 0 0 1-1-1v-6a1 1 0 0 1 1-1zm1 6h4v-4h-4v4z"/>
    </defs>
    <g fill="none" fill-rule="evenodd" transform="translate(8 4)">
        <use fill="#000" filter="url(#a)" xlink:href="#b"/>
        <use fill="#4DA1FF" xlink:href="#b"/>
        <use fill="#FFF" fill-rule="nonzero" xlink:href="#c"/>
    </g>
</svg>
